<?xml version="1.0" encoding="utf-8"?>
<!-- Generator: Adobe Illustrator 16.0.0, SVG Export Plug-In . SVG Version: 6.00 Build 0)  -->
<!DOCTYPE svg PUBLIC "-//W3C//DTD SVG 1.1//EN" "http://www.w3.org/Graphics/SVG/1.1/DTD/svg11.dtd">
<svg version="1.1" id="Layer_1" xmlns="http://www.w3.org/2000/svg" xmlns:xlink="http://www.w3.org/1999/xlink" x="0px" y="0px"
	 width="64px" height="64px" viewBox="0 0 64 64" enable-background="new 0 0 64 64" xml:space="preserve">
<rect x="44.255" y="13.388" fill="#359AC5" width="16" height="26.938"/>
<rect x="33.255" y="40.326" fill="#80C74D" width="27" height="10.146"/>
<rect x="5.357" y="40.326" fill="#F6763B" width="26.643" height="10.846"/>
<rect x="4.42" y="13.388" fill="#EC1184" width="38.002" height="26.938"/>
<path fill="#22097F" d="M56.562,11.057H7.438c-2.762,0-5,2.35-5,5.248v32.143c0,2.898,2.238,5.248,5,5.248h49.125
	c2.762,0,5-2.35,5-5.248V16.305C61.562,13.406,59.324,11.057,56.562,11.057z M5.73,17.879c0-1.738,1.343-3.148,3-3.148h30
	c1.657,0,3,1.41,3,3.148v17.667c0,1.74-1.343,3.149-3,3.149h-30c-1.657,0-3-1.409-3-3.149V17.879z M31.062,46.743
	c0,1.739-1.344,3.148-3,3.148H8.73c-1.657,0-3-1.409-3-3.148v-2.275c0-1.739,1.343-3.148,3-3.148h19.332c1.656,0,3,1.409,3,3.148
	V46.743z M58.396,46.743c0,1.739-1.343,3.148-3,3.148H37.23c-1.657,0-3-1.409-3-3.148v-2.275c0-1.739,1.343-3.148,3-3.148h18.166
	c1.657,0,3,1.409,3,3.148V46.743z M58.396,35.546c0,1.74-1.343,3.149-3,3.149h-7.5c-1.657,0-3-1.409-3-3.149V17.879
	c0-1.738,1.343-3.148,3-3.148h7.5c1.657,0,3,1.41,3,3.148V35.546z"/>
</svg>
