<?xml version="1.0" encoding="utf-8"?>
<!-- Generator: Adobe Illustrator 16.0.0, SVG Export Plug-In . SVG Version: 6.00 Build 0)  -->
<!DOCTYPE svg PUBLIC "-//W3C//DTD SVG 1.1//EN" "http://www.w3.org/Graphics/SVG/1.1/DTD/svg11.dtd">
<svg version="1.1" id="Layer_1" xmlns="http://www.w3.org/2000/svg" xmlns:xlink="http://www.w3.org/1999/xlink" x="0px" y="0px"
	 width="64px" height="64px" viewBox="0 0 64 64" enable-background="new 0 0 64 64" xml:space="preserve">
<path d="M56.562,11.056H7.438c-2.762,0-5,2.35-5,5.248v32.142c0,2.898,2.238,5.248,5,5.248h49.125c2.762,0,5-2.35,5-5.248V16.304
	C61.562,13.406,59.324,11.056,56.562,11.056z M5.73,17.878c0-1.739,1.342-3.148,3-3.148h30c1.656,0,3,1.41,3,3.148v17.667
	c0,1.738-1.344,3.149-3,3.149h-30c-1.658,0-3-1.411-3-3.149V17.878z M31.062,46.741c0,1.739-1.344,3.149-3,3.149H8.73
	c-1.658,0-3-1.41-3-3.149v-2.274c0-1.738,1.342-3.148,3-3.148h19.332c1.656,0,3,1.41,3,3.148V46.741z M58.396,46.741
	c0,1.739-1.344,3.149-3,3.149H37.23c-1.658,0-3-1.41-3-3.149v-2.274c0-1.738,1.342-3.148,3-3.148h18.166c1.656,0,3,1.41,3,3.148
	V46.741z M58.396,35.546c0,1.738-1.344,3.149-3,3.149h-7.5c-1.658,0-3-1.411-3-3.149V17.878c0-1.739,1.342-3.148,3-3.148h7.5
	c1.656,0,3,1.41,3,3.148V35.546z"/>
</svg>
