<?xml version="1.0" encoding="utf-8"?>
<!-- Generator: Adobe Illustrator 16.0.0, SVG Export Plug-In . SVG Version: 6.00 Build 0)  -->
<!DOCTYPE svg PUBLIC "-//W3C//DTD SVG 1.1//EN" "http://www.w3.org/Graphics/SVG/1.1/DTD/svg11.dtd">
<svg version="1.1" id="Layer_1" xmlns="http://www.w3.org/2000/svg" xmlns:xlink="http://www.w3.org/1999/xlink" x="0px" y="0px"
	 width="64px" height="64px" viewBox="0 0 64 64" enable-background="new 0 0 64 64" xml:space="preserve">
<rect x="44.53" y="11.77" fill="#359AC5" width="16.627" height="27.993"/>
<rect x="33.1" y="39.763" fill="#80C74D" width="28.058" height="10.544"/>
<rect x="4.11" y="39.763" fill="#F6763B" width="27.686" height="11.271"/>
<rect x="3.135" y="11.77" fill="#EC1184" width="39.491" height="27.993"/>
<path fill="#22097F" d="M57.32,8.308H6.271c-3.438,0-6.235,2.912-6.235,6.493v33.401c0,3.581,2.796,6.493,6.235,6.493H57.32
	c3.438,0,6.235-2.912,6.235-6.493V14.801C63.556,11.22,60.759,8.308,57.32,8.308z M58.188,34.795c0,1.232-0.934,2.234-2.078,2.234
	h-7.794c-1.146,0-2.079-1.002-2.079-2.234V16.437c0-1.231,0.933-2.232,2.079-2.232h7.794c1.145,0,2.078,1.001,2.078,2.232V34.795z
	 M40.868,16.437v18.358c0,1.232-0.933,2.234-2.078,2.234H7.615c-1.146,0-2.079-1.002-2.079-2.234V16.437
	c0-1.231,0.933-2.232,2.079-2.232H38.79C39.936,14.205,40.868,15.206,40.868,16.437z M5.536,44.067c0-1.231,0.933-2.232,2.079-2.232
	h20.089c1.146,0,2.079,1.001,2.079,2.232v2.364c0,1.23-0.932,2.232-2.079,2.232H7.615c-1.146,0-2.079-1.002-2.079-2.232V44.067z
	 M35.152,46.432v-2.364c0-1.231,0.934-2.232,2.078-2.232h18.879c1.145,0,2.078,1.001,2.078,2.232v2.364
	c0,1.23-0.934,2.232-2.078,2.232H37.23C36.086,48.664,35.152,47.662,35.152,46.432z"/>
<path d="M121.212,8.309H70.163c-3.438,0-6.235,2.912-6.235,6.492v33.4c0,3.581,2.797,6.493,6.235,6.493h51.049
	c3.438,0,6.235-2.912,6.235-6.493v-33.4C127.447,11.221,124.65,8.309,121.212,8.309z M122.079,34.796
	c0,1.232-0.934,2.234-2.078,2.234h-7.794c-1.146,0-2.078-1.002-2.078-2.234V16.437c0-1.231,0.932-2.232,2.078-2.232h7.794
	c1.145,0,2.078,1.001,2.078,2.232V34.796z M104.761,16.437v18.359c0,1.232-0.934,2.234-2.079,2.234H71.507
	c-1.146,0-2.078-1.002-2.078-2.234V16.437c0-1.231,0.932-2.232,2.078-2.232h31.175C103.827,14.205,104.761,15.206,104.761,16.437z
	 M69.429,44.067c0-1.231,0.932-2.233,2.078-2.233h20.089c1.146,0,2.078,1.002,2.078,2.233v2.363c0,1.231-0.933,2.233-2.078,2.233
	H71.507c-1.146,0-2.078-1.002-2.078-2.233V44.067z M99.045,46.431v-2.363c0-1.231,0.933-2.233,2.077-2.233h18.879
	c1.145,0,2.078,1.002,2.078,2.233v2.363c0,1.231-0.934,2.233-2.078,2.233h-18.879C99.978,48.664,99.045,47.662,99.045,46.431z"/>
</svg>
