<?xml version="1.0" encoding="utf-8"?>
<!-- Generator: Adobe Illustrator 16.0.0, SVG Export Plug-In . SVG Version: 6.00 Build 0)  -->
<!DOCTYPE svg PUBLIC "-//W3C//DTD SVG 1.1//EN" "http://www.w3.org/Graphics/SVG/1.1/DTD/svg11.dtd">
<svg version="1.1" id="Layer_1" xmlns="http://www.w3.org/2000/svg" xmlns:xlink="http://www.w3.org/1999/xlink" x="0px" y="0px"
	 width="64px" height="64px" viewBox="0 0 64 64" enable-background="new 0 0 64 64" xml:space="preserve">
<g>
	<path d="M-18.879,44.325c-1.133-1.326-1.133-3.483,0-4.808l7.535-8.836c1.133-1.328,1.133-3.482,0-4.81l-7.535-8.835
		c-1.133-1.324-1.133-3.481,0-4.809l1.144-1.342c1.133-1.326,2.973-1.326,4.104,0l12.784,14.985c1.131,1.326,1.131,3.485,0,4.812
		L-13.632,45.67c-1.131,1.325-2.971,1.325-4.104,0L-18.879,44.325z"/>
</g>
<path d="M12,54.25c-0.938,0-1.872-0.264-2.688-0.784C7.872,52.548,7,50.958,7,49.25V12.471c0-1.708,0.872-3.298,2.312-4.216
	c0.815-0.521,1.75-0.784,2.688-0.784c0.719,0,1.438,0.154,2.11,0.467l39.5,18.39c1.763,0.821,2.89,2.589,2.89,4.533
	s-1.127,3.712-2.89,4.533l-39.5,18.39C13.439,54.096,12.719,54.25,12,54.25z"/>
</svg>
