<?xml version="1.0" encoding="utf-8"?>
<!-- Generator: Adobe Illustrator 16.0.0, SVG Export Plug-In . SVG Version: 6.00 Build 0)  -->
<!DOCTYPE svg PUBLIC "-//W3C//DTD SVG 1.1//EN" "http://www.w3.org/Graphics/SVG/1.1/DTD/svg11.dtd">
<svg version="1.1" id="Layer_1" xmlns="http://www.w3.org/2000/svg" xmlns:xlink="http://www.w3.org/1999/xlink" x="0px" y="0px"
	 width="64px" height="64px" viewBox="0 0 64 64" enable-background="new 0 0 64 64" xml:space="preserve">
<g>
	<path d="M11.303,33.413l-2.025-0.125v4.297c0,0.561,0.088,0.967,0.266,1.215c0.176,0.249,0.509,0.374,0.996,0.374
		s0.861,0.016,1.121,0.046c0.259,0.031,0.534,0.13,0.824,0.296c0.479,0.271,0.718,0.966,0.718,2.087
		c0,1.309-0.292,2.107-0.871,2.398c-0.312,0.146-0.588,0.233-0.826,0.264c-0.24,0.031-0.586,0.048-1.043,0.048
		c-2.16,0-3.8-0.488-4.921-1.464c-1.121-0.977-1.683-2.627-1.683-4.952v-4.608c-0.395,0.062-0.82,0.093-1.275,0.093
		c-0.458,0-0.836-0.176-1.138-0.529c-0.3-0.353-0.45-0.954-0.45-1.806c0-0.851,0.052-1.469,0.154-1.853
		c0.104-0.384,0.25-0.66,0.438-0.825c0.331-0.271,0.747-0.405,1.246-0.405l1.025,0.125V24.88c0-0.477,0.016-0.829,0.049-1.06
		c0.03-0.228,0.129-0.476,0.296-0.746c0.27-0.52,1.067-0.779,2.397-0.779c1.41,0,2.251,0.385,2.521,1.152
		c0.104,0.333,0.155,0.861,0.155,1.588v3.053c0.913-0.084,1.604-0.125,2.071-0.125s0.82,0.015,1.059,0.046
		c0.239,0.032,0.514,0.13,0.825,0.297c0.54,0.27,0.81,1.069,0.81,2.396c0,1.309-0.279,2.108-0.84,2.398
		c-0.312,0.146-0.587,0.233-0.825,0.265C12.138,33.396,11.779,33.413,11.303,33.413z"/>
	<path d="M30.953,34.144c0,1.278-0.317,2.222-0.949,2.835c-0.634,0.613-1.335,0.918-2.104,0.918h-7.38
		c0,0.582,0.343,1.069,1.026,1.465c0.687,0.395,1.372,0.592,2.057,0.592c1.204,0,2.148-0.126,2.835-0.375l0.342-0.125
		c0.498-0.228,0.913-0.342,1.246-0.342c0.664,0,1.233,0.467,1.712,1.401c0.27,0.561,0.404,1.039,0.404,1.432
		c0,1.849-2.211,2.772-6.632,2.772c-1.538,0-2.903-0.265-4.095-0.794c-1.194-0.529-2.124-1.23-2.788-2.102
		c-1.308-1.682-1.962-3.562-1.962-5.637c0-2.616,0.846-4.708,2.538-6.275c1.691-1.567,3.804-2.352,6.337-2.352
		c2.886,0,5.002,1.018,6.353,3.052C30.6,31.689,30.953,32.866,30.953,34.144z M24.383,35.062c0.787,0,1.182-0.332,1.182-0.996
		c0-0.478-0.181-0.861-0.544-1.151c-0.363-0.292-0.883-0.437-1.557-0.437c-0.675,0-1.345,0.274-2.009,0.824
		c-0.665,0.552-0.998,1.137-0.998,1.76H24.383z"/>
	<path d="M44.343,36.09l3.457,3.488c0.747,0.747,1.122,1.387,1.122,1.915c0,0.529-0.375,1.164-1.122,1.9
		c-0.747,0.737-1.38,1.105-1.899,1.105s-1.152-0.375-1.899-1.12l-3.426-3.458l-3.457,3.458c-0.748,0.745-1.376,1.12-1.884,1.12
		c-0.509,0-1.143-0.368-1.899-1.105c-0.759-0.736-1.136-1.371-1.136-1.9c0-0.528,0.372-1.168,1.12-1.915l3.457-3.488l-3.457-3.486
		c-0.748-0.748-1.12-1.387-1.12-1.917c0-0.529,0.377-1.167,1.136-1.915c0.757-0.746,1.391-1.12,1.899-1.12
		c0.508,0,1.136,0.374,1.884,1.12l3.457,3.488l3.426-3.488c0.747-0.746,1.38-1.12,1.899-1.12s1.152,0.374,1.899,1.12
		c0.747,0.748,1.122,1.386,1.122,1.915c0,0.53-0.375,1.169-1.122,1.917L44.343,36.09z"/>
	<path d="M60.162,33.413l-2.025-0.125v4.297c0,0.561,0.089,0.967,0.266,1.215c0.177,0.249,0.509,0.374,0.997,0.374
		c0.487,0,0.86,0.016,1.121,0.046c0.26,0.031,0.533,0.13,0.824,0.296c0.479,0.271,0.718,0.966,0.718,2.087
		c0,1.309-0.292,2.107-0.872,2.398c-0.312,0.146-0.587,0.233-0.825,0.264c-0.24,0.031-0.587,0.048-1.044,0.048
		c-2.159,0-3.799-0.488-4.919-1.464c-1.123-0.977-1.683-2.627-1.683-4.952v-4.608c-0.396,0.062-0.821,0.093-1.276,0.093
		c-0.458,0-0.836-0.176-1.138-0.529c-0.301-0.353-0.45-0.954-0.45-1.806c0-0.851,0.051-1.469,0.154-1.853
		c0.104-0.384,0.249-0.66,0.437-0.825c0.332-0.271,0.747-0.405,1.246-0.405l1.027,0.125V24.88c0-0.477,0.015-0.829,0.047-1.06
		c0.031-0.228,0.129-0.476,0.296-0.746c0.27-0.52,1.069-0.779,2.397-0.779c1.411,0,2.251,0.385,2.523,1.152
		c0.103,0.333,0.153,0.861,0.153,1.588v3.053c0.914-0.084,1.604-0.125,2.072-0.125s0.82,0.015,1.06,0.046
		c0.237,0.032,0.514,0.13,0.824,0.297c0.54,0.27,0.81,1.069,0.81,2.396c0,1.309-0.28,2.108-0.84,2.398
		c-0.312,0.146-0.588,0.233-0.826,0.265S60.639,33.413,60.162,33.413z"/>
</g>
<path d="M63.413,14.54c0,2.592-2.733,4.691-6.105,4.691H6.589c-3.372,0-6.105-2.1-6.105-4.691v-0.938
	c0-2.591,2.733-4.691,6.105-4.691h50.719c3.372,0,6.105,2.101,6.105,4.691V14.54z"/>
<path d="M63.413,53.948c0,2.591-2.733,4.691-6.105,4.691H6.589c-3.372,0-6.105-2.101-6.105-4.691V53.01
	c0-2.592,2.733-4.691,6.105-4.691h50.719c3.372,0,6.105,2.1,6.105,4.691V53.948z"/>
</svg>
