<?xml version="1.0" encoding="utf-8"?>
<!-- Generator: Adobe Illustrator 16.0.0, SVG Export Plug-In . SVG Version: 6.00 Build 0)  -->
<!DOCTYPE svg PUBLIC "-//W3C//DTD SVG 1.1//EN" "http://www.w3.org/Graphics/SVG/1.1/DTD/svg11.dtd">
<svg version="1.1" id="Layer_1" xmlns="http://www.w3.org/2000/svg" xmlns:xlink="http://www.w3.org/1999/xlink" x="0px" y="0px"
	 width="64px" height="64px" viewBox="0 0 64 64" enable-background="new 0 0 64 64" xml:space="preserve">
<g>
	<path d="M45.121,44.325c-1.133-1.326-1.133-3.483,0-4.808l7.535-8.836c1.133-1.328,1.133-3.482,0-4.81l-7.535-8.835
		c-1.133-1.324-1.133-3.481,0-4.809l1.144-1.342c1.133-1.326,2.973-1.326,4.104,0l12.784,14.985c1.131,1.326,1.131,3.485,0,4.812
		L50.368,45.67c-1.131,1.325-2.971,1.325-4.104,0L45.121,44.325z"/>
	<path d="M19.248,12.229c1.132,1.327,1.132,3.484,0,4.81l-7.535,8.834c-1.132,1.327-1.132,3.485,0,4.812l7.535,8.834
		c1.132,1.324,1.132,3.484,0,4.81l-1.145,1.343c-1.13,1.325-2.971,1.325-4.102,0L1.217,30.684c-1.131-1.326-1.131-3.485,0-4.812
		L14,10.887c1.131-1.326,2.973-1.326,4.103,0L19.248,12.229z"/>
</g>
<g>
	<path d="M35.116,20.4c0.164-1.536,1.249-2.307,3.255-2.307c1.07,0,1.866,0.083,2.389,0.248c0.521,0.163,0.883,0.452,1.09,0.864
		c0.207,0.413,0.33,0.777,0.371,1.093s0.062,0.788,0.062,1.422v14.412c0,0.633-0.021,1.107-0.062,1.422
		c-0.041,0.318-0.156,0.68-0.35,1.093c-0.385,0.714-1.324,1.069-2.822,1.069c-1.494,0-2.498-0.185-3.006-0.553
		c-0.508-0.373-0.801-0.916-0.885-1.63c-1.018,1.455-2.713,2.183-5.087,2.183c-2.375,0-4.579-1.083-6.61-3.252
		c-2.033-2.169-3.049-4.688-3.049-7.559c0-2.869,1.024-5.384,3.069-7.537c2.046-2.156,4.29-3.232,6.733-3.232
		c0.934,0,1.785,0.164,2.555,0.492c0.768,0.33,1.303,0.639,1.606,0.926C34.678,19.843,34.924,20.128,35.116,20.4z M27.62,28.967
		c0,0.908,0.356,1.724,1.07,2.45c0.714,0.731,1.58,1.094,2.594,1.094c1.016,0,1.861-0.372,2.535-1.114
		c0.673-0.74,1.009-1.559,1.009-2.449c0-0.893-0.323-1.723-0.969-2.491c-0.645-0.771-1.511-1.153-2.594-1.153
		c-1.085,0-1.963,0.383-2.636,1.153C27.957,27.225,27.62,28.062,27.62,28.967z"/>
</g>
</svg>
