<?xml version="1.0" encoding="utf-8"?>
<!-- Generator: Adobe Illustrator 16.0.0, SVG Export Plug-In . SVG Version: 6.00 Build 0)  -->
<!DOCTYPE svg PUBLIC "-//W3C//DTD SVG 1.1//EN" "http://www.w3.org/Graphics/SVG/1.1/DTD/svg11.dtd">
<svg version="1.1" id="Layer_1" xmlns="http://www.w3.org/2000/svg" xmlns:xlink="http://www.w3.org/1999/xlink" x="0px" y="0px"
	 width="64px" height="64px" viewBox="0 0 64 64" enable-background="new 0 0 64 64" xml:space="preserve">
<path d="M57.212,8.309H6.163c-3.438,0-6.235,2.912-6.235,6.492v33.4c0,3.581,2.797,6.493,6.235,6.493h51.049
	c3.438,0,6.235-2.912,6.235-6.493v-33.4C63.447,11.221,60.65,8.309,57.212,8.309z M58.079,34.796c0,1.232-0.934,2.234-2.078,2.234
	h-7.794c-1.146,0-2.078-1.002-2.078-2.234V16.437c0-1.231,0.932-2.232,2.078-2.232h7.794c1.145,0,2.078,1.001,2.078,2.232V34.796z
	 M40.761,16.437v18.359c0,1.232-0.934,2.234-2.079,2.234H7.507c-1.146,0-2.078-1.002-2.078-2.234V16.437
	c0-1.231,0.932-2.232,2.078-2.232h31.175C39.827,14.205,40.761,15.206,40.761,16.437z M5.429,44.067
	c0-1.231,0.932-2.233,2.078-2.233h20.089c1.146,0,2.078,1.002,2.078,2.233v2.363c0,1.231-0.933,2.233-2.078,2.233H7.507
	c-1.146,0-2.078-1.002-2.078-2.233V44.067z M35.045,46.431v-2.363c0-1.231,0.933-2.233,2.077-2.233h18.879
	c1.145,0,2.078,1.002,2.078,2.233v2.363c0,1.231-0.934,2.233-2.078,2.233H37.122C35.978,48.664,35.045,47.662,35.045,46.431z"/>
</svg>
