<?xml version="1.0" encoding="utf-8"?>
<!-- Generator: Adobe Illustrator 16.0.0, SVG Export Plug-In . SVG Version: 6.00 Build 0)  -->
<!DOCTYPE svg PUBLIC "-//W3C//DTD SVG 1.1//EN" "http://www.w3.org/Graphics/SVG/1.1/DTD/svg11.dtd">
<svg version="1.1" id="Layer_1" xmlns="http://www.w3.org/2000/svg" xmlns:xlink="http://www.w3.org/1999/xlink" x="0px" y="0px"
	 width="64px" height="64px" viewBox="0 0 64 64" enable-background="new 0 0 64 64" xml:space="preserve">
<g>
	<path d="M36.871,49.045c-1.409-1.408-1.409-3.699,0-5.107l9.383-9.385c1.41-1.41,1.41-3.697,0-5.108l-9.383-9.384
		c-1.409-1.408-1.409-3.699,0-5.108l1.425-1.425c1.409-1.409,3.7-1.409,5.108,0l15.919,15.918c1.409,1.408,1.409,3.7,0,5.108
		L43.405,50.473c-1.408,1.408-3.7,1.408-5.109,0L36.871,49.045z"/>
	<path d="M27.129,14.953c1.409,1.408,1.409,3.7,0,5.108l-9.383,9.384c-1.41,1.41-1.41,3.699,0,5.109l9.383,9.383
		c1.409,1.408,1.409,3.701,0,5.109l-1.425,1.426c-1.409,1.408-3.699,1.408-5.108,0L4.676,34.554c-1.409-1.409-1.409-3.7,0-5.108
		l15.918-15.918c1.409-1.409,3.701-1.409,5.109,0L27.129,14.953z"/>
</g>
</svg>
