<?xml version="1.0" encoding="utf-8"?>
<!-- Generator: Adobe Illustrator 16.0.0, SVG Export Plug-In . SVG Version: 6.00 Build 0)  -->
<!DOCTYPE svg PUBLIC "-//W3C//DTD SVG 1.1//EN" "http://www.w3.org/Graphics/SVG/1.1/DTD/svg11.dtd">
<svg version="1.1" id="Layer_1" xmlns="http://www.w3.org/2000/svg" xmlns:xlink="http://www.w3.org/1999/xlink" x="0px" y="0px"
	 width="128px" height="128px" viewBox="0 0 128 128" enable-background="new 0 0 128 128" xml:space="preserve">
<ellipse fill-rule="evenodd" clip-rule="evenodd" cx="65.885" cy="114.126" rx="24.209" ry="11.678"/>
<path d="M105.868,43.85c0-22.083-17.901-39.986-39.983-39.986c-22.083,0-39.985,17.903-39.985,39.986c0,6,1.331,11.688,3.699,16.796
	h-0.002c0.005,0.009,0.013,0.022,0.015,0.032c0.666,1.43,1.412,2.82,2.236,4.156c8.023,13.877,30.962,47.441,33.778,47.441
	c0.117,0,0.256,0,0.256,0h0.003c0,0,0.139,0,0.258,0c2.815,0,25.754-33.562,33.776-47.441c0.827-1.336,1.569-2.723,2.236-4.156
	c0.004-0.01,0.01-0.023,0.015-0.032h-0.001C104.536,55.538,105.868,49.85,105.868,43.85z M78.715,49.105
	c-2.829,3.052-5.894,5.881-8.795,8.869c-1.477,1.519-2.825,3.167-4.426,4.981c-0.663-0.738-1.145-1.314-1.668-1.848
	c-2.875-2.94-5.771-5.858-8.638-8.803c-2.942-3.022-6.005-5.962-7.106-10.265c-1.507-5.909,1.218-10.735,6.814-11.845
	c2.996-0.593,5.65,0.101,7.6,2.659c0.277,0.363,0.541,0.739,0.845,1.078c1.376,1.516,2.956,1.511,4.307-0.012
	c0.772-0.867,1.388-1.952,2.31-2.594c4.787-3.33,12.1-0.118,13.085,5.637C83.878,41.841,81.858,45.714,78.715,49.105z"/>
</svg>
