<?xml version="1.0" encoding="utf-8"?>
<!-- Generator: Adobe Illustrator 16.0.0, SVG Export Plug-In . SVG Version: 6.00 Build 0)  -->
<!DOCTYPE svg PUBLIC "-//W3C//DTD SVG 1.1//EN" "http://www.w3.org/Graphics/SVG/1.1/DTD/svg11.dtd">
<svg version="1.1" id="Layer_1" xmlns="http://www.w3.org/2000/svg" xmlns:xlink="http://www.w3.org/1999/xlink" x="0px" y="0px"
	 width="128px" height="128px" viewBox="0 0 128 128" enable-background="new 0 0 128 128" xml:space="preserve">
<path d="M111.588,55.775c0.014-0.396,0.029-0.793,0.029-1.193c0-18.205-14.76-32.964-32.965-32.964
	c-10.864,0-20.498,5.256-26.502,13.36c-2.685-1.05-5.604-1.631-8.66-1.631c-11.896,0-21.749,8.721-23.526,20.118
	C11.889,57.89,6.489,65.924,6.489,75.105c0,13.959,12.485,25.275,27.89,25.275h59.244c15.402,0,27.888-11.316,27.888-25.275
	C121.511,67.348,117.652,60.414,111.588,55.775z"/>
<path fill="#FFFFFF" d="M66.785,67.434c-8.004,0-14.752,5.364-16.858,12.691c2.704,6.656,9.231,11.352,16.858,11.352
	s14.154-4.695,16.858-11.352C81.537,72.798,74.79,67.434,66.785,67.434z M66.408,88.771c-5.464,0-9.894-4.431-9.894-9.893
	c0-5.465,4.43-9.894,9.894-9.894c5.463,0,9.894,4.429,9.894,9.894C76.302,84.341,71.871,88.771,66.408,88.771z"/>
<path fill="#FFFFFF" d="M-86.548-152.357c-3.847,0-4.779-3.358-3.401-5.836c1.404-2.303,3.566-4.371,5.726-6.155
	c4.459-3.684,9.981-6.538,15.979-7.872c8.836-2.247,18.57-0.037,25.744,4.72c3.645,2.416,6.693,5.373,9.248,8.664
	c1.518,2.048,2.105,4.796-1.008,6.11c-3.234,1.366-5.206-1.198-7.278-2.806c-6.332-5.22-13.916-9.081-22.975-7.797
	c-4.638,0.712-8.865,2.623-12.697,4.926C-79.748-156.803-83.341-152.358-86.548-152.357
	C-87.356-152.357-85.341-152.358-86.548-152.357z"/>
<g>
	<g>
		<path fill="#FFFFFF" d="M92.648,72.059c-0.604,0.188-1.298-0.296-1.587-1.054l0,0c-0.288-0.756-0.087-1.555,0.488-1.823
			c2.166-0.982,4.331-1.963,6.497-2.947c0.573-0.266,1.4,0.316,1.797,1.357l0,0c0.396,1.041,0.188,2.074-0.416,2.264
			C97.168,70.589,94.907,71.324,92.648,72.059z"/>
	</g>
	<g>
		<path fill="#FFFFFF" d="M86.784,61.813c-0.472,0.427-1.244,0.337-1.755-0.167l0,0c-0.508-0.505-0.601-1.273-0.183-1.751
			c1.588-1.785,3.175-3.567,4.763-5.351c0.418-0.478,1.352-0.343,2.054,0.352l0,0c0.701,0.694,0.854,1.639,0.384,2.064
			C90.292,58.579,88.537,60.196,86.784,61.813z"/>
	</g>
	<g>
		<path fill="#FFFFFF" d="M78.024,55.475c-0.271,0.575-0.998,0.806-1.642,0.554l0,0c-0.641-0.253-1.001-0.913-0.796-1.514
			c0.789-2.247,1.579-4.494,2.367-6.741c0.206-0.599,1.097-0.846,1.977-0.499l0,0c0.884,0.347,1.364,1.132,1.093,1.707
			C80.023,51.146,79.024,53.311,78.024,55.475z"/>
	</g>
	<g>
		<path fill="#FFFFFF" d="M67.736,53.042c-0.036,0.632-0.618,1.116-1.304,1.116l0,0c-0.683,0-1.268-0.485-1.304-1.116
			c-0.111-2.374-0.225-4.748-0.337-7.122c-0.036-0.632,0.701-1.184,1.641-1.183l0,0c0.944,0,1.677,0.551,1.641,1.183
			C67.96,48.294,67.848,50.668,67.736,53.042z"/>
	</g>
	<g>
		<path fill="#FFFFFF" d="M57.279,54.515c0.206,0.6-0.157,1.261-0.797,1.514l0,0c-0.639,0.251-1.37,0.019-1.64-0.556
			c-1-2.163-1.999-4.328-2.999-6.492c-0.271-0.574,0.209-1.36,1.09-1.706l0,0c0.881-0.347,1.774-0.102,1.978,0.498
			C55.702,50.021,56.49,52.268,57.279,54.515z"/>
	</g>
	<g>
		<path fill="#FFFFFF" d="M48.018,59.895c0.419,0.477,0.326,1.247-0.181,1.75l0,0c-0.509,0.504-1.284,0.595-1.754,0.168
			c-1.755-1.617-3.51-3.235-5.264-4.854c-0.473-0.426-0.313-1.374,0.386-2.065l0,0c0.7-0.694,1.633-0.829,2.05-0.35
			C44.843,56.328,46.431,58.112,48.018,59.895z"/>
	</g>
	<g>
		<path fill="#FFFFFF" d="M41.316,69.181c0.574,0.267,0.777,1.067,0.488,1.824l0,0c-0.291,0.754-0.981,1.243-1.588,1.054
			c-2.259-0.734-4.52-1.47-6.78-2.203c-0.603-0.19-0.812-1.225-0.414-2.264l0,0c0.397-1.043,1.224-1.628,1.798-1.361
			C36.985,67.214,39.151,68.197,41.316,69.181z"/>
	</g>
</g>
<circle fill="#FFFFFF" cx="66.633" cy="76.782" r="5.718"/>
</svg>
