<?xml version="1.0" encoding="utf-8"?>
<!-- Generator: Adobe Illustrator 16.0.0, SVG Export Plug-In . SVG Version: 6.00 Build 0)  -->
<!DOCTYPE svg PUBLIC "-//W3C//DTD SVG 1.1//EN" "http://www.w3.org/Graphics/SVG/1.1/DTD/svg11.dtd">
<svg version="1.1" id="Layer_1" xmlns="http://www.w3.org/2000/svg" xmlns:xlink="http://www.w3.org/1999/xlink" x="0px" y="0px"
	 width="128px" height="128px" viewBox="0 0 128 128" enable-background="new 0 0 128 128" xml:space="preserve">
<path d="M111.588,55.775c0.014-0.396,0.029-0.793,0.029-1.193c0-18.205-14.76-32.964-32.965-32.964
	c-10.864,0-20.499,5.256-26.502,13.36c-2.685-1.05-5.604-1.631-8.66-1.631c-11.896,0-21.749,8.721-23.526,20.118
	C11.889,57.89,6.489,65.924,6.489,75.105c0,13.959,12.485,25.274,27.89,25.274h59.244c15.402,0,27.889-11.315,27.889-25.274
	C121.512,67.348,117.652,60.414,111.588,55.775z"/>
<path fill="#FFFFFF" d="M66.044,56.934c-10.501,0-19.354,7.037-22.117,16.65c3.548,8.732,12.111,14.893,22.117,14.893
	s18.569-6.16,22.117-14.893C85.398,63.971,76.546,56.934,66.044,56.934z M65.549,84.928c-7.168,0-12.979-5.812-12.979-12.979
	c0-7.17,5.812-12.98,12.979-12.98s12.98,5.811,12.98,12.98C78.529,79.115,72.717,84.928,65.549,84.928z"/>
<g>
	<g>
		<g>
			<path fill="#FFFFFF" d="M99.398,72.837c-0.774,0.242-1.666-0.381-2.037-1.354l0,0c-0.37-0.971-0.11-1.996,0.627-2.342
				c2.783-1.262,5.564-2.522,8.348-3.785c0.736-0.344,1.801,0.406,2.309,1.742l0,0c0.512,1.338,0.242,2.666-0.533,2.908
				C105.207,70.95,102.303,71.895,99.398,72.837z"/>
		</g>
		<g>
			<path fill="#FFFFFF" d="M91.865,59.676c-0.604,0.548-1.598,0.433-2.252-0.215l0,0c-0.652-0.649-0.772-1.636-0.235-2.251
				c2.039-2.291,4.079-4.582,6.118-6.873c0.538-0.614,1.736-0.44,2.638,0.452l0,0c0.9,0.892,1.099,2.104,0.494,2.652
				C96.374,55.52,94.12,57.598,91.865,59.676z"/>
		</g>
		<g>
			<path fill="#FFFFFF" d="M80.613,51.532c-0.348,0.738-1.283,1.035-2.108,0.712l0,0c-0.821-0.325-1.286-1.173-1.022-1.945
				c1.015-2.886,2.027-5.773,3.043-8.66c0.263-0.77,1.406-1.085,2.539-0.64l0,0c1.135,0.446,1.75,1.455,1.402,2.192
				C83.184,45.972,81.898,48.752,80.613,51.532z"/>
		</g>
		<g>
			<path fill="#FFFFFF" d="M67.396,48.406c-0.047,0.812-0.795,1.434-1.676,1.434l0,0c-0.877-0.001-1.627-0.624-1.673-1.434
				c-0.144-3.05-0.289-6.1-0.433-9.149c-0.046-0.812,0.898-1.521,2.105-1.519l0,0c1.213,0,2.153,0.708,2.107,1.519
				C67.684,42.307,67.54,45.356,67.396,48.406z"/>
		</g>
		<g>
			<path fill="#FFFFFF" d="M53.962,50.299c0.263,0.771-0.202,1.621-1.025,1.946l0,0c-0.822,0.323-1.758,0.025-2.107-0.713
				c-1.284-2.78-2.567-5.561-3.852-8.341c-0.349-0.737,0.269-1.747,1.4-2.191l0,0c1.132-0.446,2.28-0.131,2.542,0.64
				C51.935,44.526,52.949,47.412,53.962,50.299z"/>
		</g>
		<g>
			<path fill="#FFFFFF" d="M42.064,57.21c0.538,0.614,0.419,1.602-0.234,2.25l0,0c-0.653,0.646-1.648,0.764-2.253,0.216
				c-2.254-2.078-4.508-4.156-6.762-6.235c-0.606-0.547-0.403-1.765,0.496-2.653l0,0c0.899-0.892,2.097-1.064,2.634-0.449
				C37.985,52.628,40.025,54.919,42.064,57.21z"/>
		</g>
		<g>
			<path fill="#FFFFFF" d="M33.455,69.139c0.737,0.344,0.998,1.371,0.626,2.344l0,0c-0.374,0.972-1.261,1.599-2.039,1.354
				c-2.903-0.942-5.807-1.887-8.711-2.83c-0.775-0.243-1.045-1.571-0.533-2.909l0,0c0.51-1.339,1.573-2.089,2.311-1.746
				C27.891,66.614,30.673,67.876,33.455,69.139z"/>
		</g>
	</g>
</g>
</svg>
