<?xml version="1.0" encoding="utf-8"?>
<!-- Generator: Adobe Illustrator 16.0.0, SVG Export Plug-In . SVG Version: 6.00 Build 0)  -->
<!DOCTYPE svg PUBLIC "-//W3C//DTD SVG 1.1//EN" "http://www.w3.org/Graphics/SVG/1.1/DTD/svg11.dtd">
<svg version="1.1" id="Layer_1" xmlns="http://www.w3.org/2000/svg" xmlns:xlink="http://www.w3.org/1999/xlink" x="0px" y="0px"
	 width="128px" height="128px" viewBox="0 0 128 128" enable-background="new 0 0 128 128" xml:space="preserve">
<path d="M111.588,55.775c0.014-0.396,0.029-0.793,0.029-1.193c0-18.205-14.76-32.964-32.965-32.964
	c-10.864,0-20.499,5.256-26.502,13.36c-2.685-1.05-5.604-1.631-8.66-1.631c-11.896,0-21.749,8.721-23.526,20.118
	C11.889,57.89,6.489,65.924,6.489,75.105c0,13.959,12.485,25.274,27.89,25.274h59.244c15.402,0,27.889-11.315,27.889-25.274
	C121.512,67.348,117.652,60.414,111.588,55.775z"/>
<path fill="#FFFFFF" d="M65.921,52.591c-11.943,0-22.013,8.004-25.155,18.937c4.036,9.932,13.775,16.938,25.155,16.938
	c11.381,0,21.12-7.007,25.155-16.938C87.935,60.595,77.865,52.591,65.921,52.591z"/>
<circle cx="65.921" cy="70.528" r="13.292"/>
</svg>
