<?xml version="1.0" encoding="utf-8"?>
<!-- Generator: Adobe Illustrator 16.0.0, SVG Export Plug-In . SVG Version: 6.00 Build 0)  -->
<!DOCTYPE svg PUBLIC "-//W3C//DTD SVG 1.1//EN" "http://www.w3.org/Graphics/SVG/1.1/DTD/svg11.dtd">
<svg version="1.1" id="Layer_1" xmlns="http://www.w3.org/2000/svg" xmlns:xlink="http://www.w3.org/1999/xlink" x="0px" y="0px"
	 width="128px" height="128px" viewBox="0 0 128 128" enable-background="new 0 0 128 128" xml:space="preserve">
<path d="M111.588,55.775c0.014-0.396,0.029-0.793,0.029-1.193c0-18.205-14.76-32.964-32.965-32.964
	c-10.864,0-20.498,5.256-26.502,13.36c-2.685-1.05-5.604-1.631-8.66-1.631c-11.896,0-21.749,8.721-23.526,20.118
	C11.889,57.89,6.489,65.924,6.489,75.105c0,13.959,12.485,25.275,27.89,25.275h59.244c15.402,0,27.888-11.316,27.888-25.275
	C121.511,67.348,117.652,60.414,111.588,55.775z"/>
<path fill="#FFFFFF" d="M-86.548-152.357c-3.847,0-4.779-3.358-3.401-5.836c1.404-2.303,3.566-4.371,5.726-6.155
	c4.459-3.684,9.981-6.538,15.979-7.872c8.836-2.247,18.57-0.037,25.744,4.72c3.645,2.416,6.693,5.373,9.248,8.664
	c1.518,2.048,2.105,4.796-1.008,6.11c-3.234,1.366-5.206-1.198-7.278-2.806c-6.332-5.22-13.916-9.081-22.975-7.797
	c-4.638,0.712-8.865,2.623-12.697,4.926C-79.748-156.803-83.341-152.358-86.548-152.357
	C-87.356-152.357-85.341-152.358-86.548-152.357z"/>
</svg>
