<?xml version="1.0" encoding="utf-8"?>
<!-- Generator: Adobe Illustrator 16.0.0, SVG Export Plug-In . SVG Version: 6.00 Build 0)  -->
<!DOCTYPE svg PUBLIC "-//W3C//DTD SVG 1.1//EN" "http://www.w3.org/Graphics/SVG/1.1/DTD/svg11.dtd">
<svg version="1.1" id="Layer_1" xmlns="http://www.w3.org/2000/svg" xmlns:xlink="http://www.w3.org/1999/xlink" x="0px" y="0px"
	 width="128px" height="128px" viewBox="0 0 128 128" enable-background="new 0 0 128 128" xml:space="preserve">
<g>
	<path d="M39.58,37.222l5.789-6.2c0.94-1.007,2.271-1.585,3.65-1.585c1.269,0,2.479,0.477,3.406,1.343l5.195,4.851
		c0.918-0.189,1.869-0.287,2.841-0.293c1.223-0.597,2.673-0.711,3.966-0.227c0.167,0.062,0.324,0.143,0.481,0.222h19.759V20.989
		c0-6.935-5.622-12.557-12.557-12.557H26.89c-6.935,0-12.557,5.622-12.557,12.557v60.22c0,6.934,5.622,12.557,12.557,12.557H46
		V56.359c-0.095-0.16-0.189-0.32-0.267-0.492c-0.679-1.508-0.554-3.214,0.267-4.593v-1.227l-6.179-5.768
		C37.809,42.399,37.701,39.233,39.58,37.222z"/>
	<path d="M105.777,39.333H67.636c0.009,0.094,0.028,0.185,0.031,0.28l0.467,13.695c0.045,1.317-0.421,2.575-1.311,3.546
		l-0.015,0.016c-0.933,0.994-2.21,1.565-3.533,1.6l-12.991,0.34c-0.096,0-0.19-0.016-0.285-0.021v51.321
		c0,5.821,4.736,10.557,10.557,10.557h45.221c5.821,0,10.557-4.735,10.557-10.557V49.89
		C116.334,44.069,111.599,39.333,105.777,39.333z M97.04,75.178l-4.964,4.838l1.173,6.829c0.177,1.028-0.239,2.049-1.082,2.662
		c-0.821,0.596-1.964,0.68-2.865,0.206l-6.135-3.224l-6.136,3.225c-0.898,0.473-2.042,0.39-2.863-0.207
		c-0.845-0.613-1.26-1.633-1.083-2.661l1.173-6.83l-4.965-4.838c-0.735-0.717-1.006-1.812-0.688-2.789
		c0.322-0.991,1.164-1.701,2.196-1.852l6.858-0.996l3.066-6.215c0.462-0.936,1.397-1.517,2.44-1.517s1.978,0.581,2.439,1.517
		l3.067,6.215l6.858,0.996c1.032,0.15,1.873,0.859,2.195,1.853C98.046,73.366,97.775,74.461,97.04,75.178z"/>
	<path d="M50.338,55.809l12.859-0.338c0.512-0.013,1.006-0.228,1.364-0.589l0.039-0.042c0.364-0.39,0.554-0.898,0.536-1.43
		l-0.467-13.692c-0.029-0.808-0.537-1.514-1.294-1.797c-0.746-0.279-1.619-0.071-2.159,0.507l-2.326,2.494l-8.513-7.948
		c-0.37-0.345-0.853-0.536-1.358-0.536c-0.559,0-1.077,0.225-1.458,0.633l-5.79,6.2c-0.75,0.803-0.706,2.066,0.097,2.817l8.893,8.3
		l-1.932,2.07c-0.55,0.589-0.692,1.444-0.361,2.178c0.321,0.712,1.035,1.174,1.816,1.174L50.338,55.809z"/>
</g>
</svg>
