<?xml version="1.0" encoding="utf-8"?>
<!-- Generator: Adobe Illustrator 16.0.0, SVG Export Plug-In . SVG Version: 6.00 Build 0)  -->
<!DOCTYPE svg PUBLIC "-//W3C//DTD SVG 1.1//EN" "http://www.w3.org/Graphics/SVG/1.1/DTD/svg11.dtd">
<svg version="1.1" id="Layer_1" xmlns="http://www.w3.org/2000/svg" xmlns:xlink="http://www.w3.org/1999/xlink" x="0px" y="0px"
	 width="128px" height="128px" viewBox="131.5 0 128 128" enable-background="new 131.5 0 128 128" xml:space="preserve">
<path d="M243.088,61.956c0.014-0.396,0.029-0.793,0.029-1.193c0-18.206-14.76-32.965-32.965-32.965
	c-10.864,0-20.498,5.256-26.502,13.36c-2.684-1.05-5.604-1.631-8.66-1.631c-11.896,0-21.749,8.721-23.526,20.117
	c-8.075,4.427-13.475,12.459-13.475,21.641c0,13.959,12.486,25.275,27.89,25.275h59.244c15.402,0,27.888-11.316,27.888-25.275
	C253.011,73.529,249.152,66.594,243.088,61.956z M210.732,82.52l-11.863,11.859c-0.232,0.232-0.485,0.443-0.756,0.619l-0.137,0.082
	c-0.229,0.137-0.447,0.258-0.682,0.35l-0.223,0.074c-0.271,0.092-0.463,0.154-0.666,0.191c-0.092,0.018-0.183,0.027-0.273,0.033
	l-0.152,0.016c-0.234,0.029-0.355,0.043-0.48,0.043c-0.119,0-0.23-0.014-0.344-0.029l-0.209-0.021
	c-0.12-0.008-0.239-0.02-0.354-0.041c-0.193-0.037-0.367-0.096-0.544-0.156c-0.184-0.055-0.27-0.078-0.355-0.113
	c-0.182-0.072-0.357-0.176-0.537-0.275c-0.151-0.084-0.215-0.115-0.275-0.156c-0.273-0.18-0.525-0.387-0.744-0.613l-11.871-11.867
	c-0.896-0.895-1.389-2.084-1.389-3.355c0-1.262,0.492-2.451,1.389-3.352c1.787-1.789,4.913-1.789,6.706,0l3.786,3.791V51.313
	c0-2.611,2.128-4.742,4.742-4.742c2.612,0,4.743,2.131,4.743,4.742v28.289l3.784-3.791c1.791-1.793,4.915-1.793,6.704,0.002
	c0.896,0.896,1.389,2.09,1.389,3.355C212.121,80.432,211.629,81.625,210.732,82.52z"/>
</svg>
