<?xml version="1.0" encoding="utf-8"?>
<!-- Generator: Adobe Illustrator 16.0.0, SVG Export Plug-In . SVG Version: 6.00 Build 0)  -->
<!DOCTYPE svg PUBLIC "-//W3C//DTD SVG 1.1//EN" "http://www.w3.org/Graphics/SVG/1.1/DTD/svg11.dtd">
<svg version="1.1" id="Layer_1" xmlns="http://www.w3.org/2000/svg" xmlns:xlink="http://www.w3.org/1999/xlink" x="0px" y="0px"
	 width="128px" height="128px" viewBox="0 0 128 128" enable-background="new 0 0 128 128" xml:space="preserve">
<path d="M71.014,79.548l-22.614-22.61c-4.959,6.586-8.516,13.43-9.69,20.239c-0.015,0.084,0.02,0.158,0.015,0.243
	c-5.014-1.002-10.489,0.342-14.213,4.066c-5.49,5.484-14.59,24.053-14.59,34.115c0,1.363,1.105,2.479,2.479,2.479
	c10.067,0,28.62-9.105,34.105-14.595c3.849-3.849,5.237-9.225,4.2-14.188c0.045-0.012,0.094-0.006,0.134-0.016
	C57.663,88.062,64.477,84.496,71.014,79.548z"/>
<path d="M117.225,10.782c-0.392-0.392-1.107-0.863-2.263-0.863c-6.561,0-43.308,19.366-63.449,43.116l23.374,23.373
	c21.801-18.607,39.685-51.145,42.675-60.682C117.942,14.497,118.658,12.215,117.225,10.782z"/>
</svg>
