<?xml version="1.0" encoding="utf-8"?>
<!-- Generator: Adobe Illustrator 16.0.0, SVG Export Plug-In . SVG Version: 6.00 Build 0)  -->
<!DOCTYPE svg PUBLIC "-//W3C//DTD SVG 1.1//EN" "http://www.w3.org/Graphics/SVG/1.1/DTD/svg11.dtd">
<svg version="1.1" id="Layer_1" xmlns="http://www.w3.org/2000/svg" xmlns:xlink="http://www.w3.org/1999/xlink" x="0px" y="0px"
	 width="128px" height="128px" viewBox="0 0 128 128" enable-background="new 0 0 128 128" xml:space="preserve">
<g>
	<path fill="#FFFFFF" d="M91.071,108.586c-0.796,0-1.594-0.189-2.326-0.574L63.724,94.856l-25.021,13.155
		c-0.731,0.385-1.531,0.574-2.326,0.574c-1.037,0-2.068-0.322-2.939-0.955c-1.54-1.118-2.312-3.015-1.989-4.89l4.778-27.864
		L15.982,55.145c-1.362-1.329-1.854-3.315-1.265-5.125c0.588-1.81,2.152-3.129,4.036-3.403l27.975-4.064l12.512-25.35
		c0.842-1.707,2.58-2.787,4.483-2.787l0,0c1.903,0,3.642,1.081,4.483,2.787l12.511,25.35l27.976,4.064
		c1.884,0.274,3.448,1.593,4.036,3.403c0.589,1.81,0.098,3.797-1.265,5.125L91.221,74.877L96,102.74
		c0.322,1.876-0.449,3.772-1.989,4.891C93.141,108.264,92.108,108.586,91.071,108.586z"/>
	<g>
		<path d="M91.071,102.586c1.336,0.161-0.009-0.129-0.623-0.452c-1.145-0.602-2.289-1.203-3.434-1.805
			c-3.593-1.89-7.187-3.778-10.78-5.668c-4.417-2.322-10.834-7.459-15.888-4.803c-5.888,3.096-11.775,6.191-17.663,9.287
			c-2.221,1.167-4.44,2.335-6.661,3.502c-0.876,0.461,1.062,2.56,1.327,1.011c0.221-1.287,0.44-2.573,0.661-3.859
			c1.221-7.117,2.441-14.234,3.662-21.352c0.475-2.77,1.065-5.601-1.237-7.845c-1.669-1.627-3.338-3.254-5.008-4.881
			c-4.903-4.78-9.807-9.559-14.71-14.339c-1.276-1.244,0.691,0.865-0.324,1.013c0.646-0.094,1.292-0.188,1.938-0.282
			c3.514-0.511,7.028-1.021,10.543-1.532c3.631-0.528,7.262-1.055,10.894-1.583c2.472-0.359,5.31-0.312,7.202-2.205
			c1.396-1.396,2.125-3.617,2.976-5.342c1.769-3.583,3.537-7.166,5.305-10.748c1.428-2.893,2.855-5.785,4.283-8.677
			c0.289-0.585,0.578-1.171,0.867-1.756c-0.668,1.354-1.881-1.065-0.907,0.908c3.102,6.284,6.202,12.567,9.304,18.851
			c0.906,1.837,1.812,3.673,2.719,5.51c1.358,2.751,4.193,2.883,6.77,3.257c7.217,1.049,14.433,2.097,21.648,3.146
			c0.925,0.134,1.85,0.269,2.774,0.403c0.875,0.127,0.814-1.737,0.386-1.319c-1.848,1.801-3.696,3.603-5.544,5.404
			c-4.764,4.643-9.527,9.286-14.291,13.929c-3.818,3.723-0.798,12.099-0.014,16.673c0.641,3.734,1.281,7.469,1.922,11.203
			c0.236,1.375,0.472,2.75,0.708,4.125c0.538,3.142,0.216,0.344-0.399,0.439c-7.628,1.196-4.378,12.758,3.189,11.572
			c11.419-1.791,9.172-12.923,7.78-21.033c-1.146-6.686-2.293-13.371-3.439-20.057c-0.515,1.945-1.029,3.892-1.544,5.837
			c4.191-4.084,8.382-8.169,12.572-12.253c5.51-5.371,12.002-9.793,10.48-18.442c-1.423-8.084-11.73-8.103-17.888-8.997
			c-6.105-0.887-12.21-1.774-18.315-2.661c1.195,0.919,2.391,1.838,3.586,2.757c-2.59-5.248-5.18-10.495-7.77-15.743
			c-3.108-6.3-5.827-15.366-14.405-15.366c-8.336,0-10.957,8.377-13.984,14.513c-2.73,5.532-5.461,11.064-8.191,16.596
			c1.195-0.919,2.391-1.838,3.586-2.757c-5.791,0.841-11.582,1.683-17.373,2.524c-6.295,0.915-17.365,0.82-18.829,9.134
			c-1.478,8.397,4.454,12.567,9.799,17.777c4.417,4.307,8.835,8.612,13.253,12.918c-0.515-1.945-1.029-3.892-1.544-5.837
			c-0.988,5.768-1.978,11.536-2.967,17.304c-1.225,7.139-4.242,15.524,1.722,21.287c6.463,6.246,15.012,0.018,21.177-3.224
			c5.46-2.87,10.921-5.741,16.381-8.612c-2.019,0-4.038,0-6.057,0c4.606,2.422,9.212,4.844,13.818,7.265
			c5.201,2.735,10.636,6.571,16.558,7.284C98.744,115.509,98.654,103.498,91.071,102.586z"/>
	</g>
</g>
</svg>
