<?xml version="1.0" encoding="utf-8"?>
<!-- Generator: Adobe Illustrator 16.0.0, SVG Export Plug-In . SVG Version: 6.00 Build 0)  -->
<!DOCTYPE svg PUBLIC "-//W3C//DTD SVG 1.1//EN" "http://www.w3.org/Graphics/SVG/1.1/DTD/svg11.dtd">
<svg version="1.1" id="Layer_1" xmlns="http://www.w3.org/2000/svg" xmlns:xlink="http://www.w3.org/1999/xlink" x="0px" y="0px"
	 width="128px" height="128px" viewBox="0 0 128 128" enable-background="new 0 0 128 128" xml:space="preserve">
<path d="M91.07,111.746c-1.316,0-2.63-0.324-3.797-0.938L65.12,99.16c-0.438-0.229-0.917-0.345-1.396-0.345
	s-0.959,0.115-1.396,0.345l-22.155,11.648c-1.167,0.613-2.48,0.938-3.797,0.938c-1.735,0-3.394-0.539-4.798-1.559
	c-2.531-1.839-3.775-4.897-3.246-7.981l4.231-24.672c0.167-0.973-0.156-1.966-0.863-2.655l-17.924-17.47
	c-2.24-2.185-3.031-5.39-2.065-8.365c0.967-2.977,3.491-5.104,6.588-5.555l24.771-3.6c0.977-0.142,1.822-0.756,2.259-1.641
	l11.077-22.445c1.385-2.806,4.189-4.549,7.318-4.549s5.934,1.743,7.318,4.55l11.076,22.445c0.438,0.885,1.282,1.499,2.259,1.641
	l24.771,3.6c3.098,0.45,5.622,2.578,6.588,5.554c0.967,2.977,0.176,6.182-2.064,8.367l-17.923,17.47
	c-0.707,0.689-1.03,1.683-0.863,2.655l4.229,24.671c0.529,3.085-0.714,6.144-3.245,7.983
	C94.466,111.207,92.806,111.746,91.07,111.746z"/>
</svg>
