<?xml version="1.0" encoding="utf-8"?>
<!-- Generator: Adobe Illustrator 16.0.0, SVG Export Plug-In . SVG Version: 6.00 Build 0)  -->
<!DOCTYPE svg PUBLIC "-//W3C//DTD SVG 1.1//EN" "http://www.w3.org/Graphics/SVG/1.1/DTD/svg11.dtd">
<svg version="1.1" id="Layer_1" xmlns="http://www.w3.org/2000/svg" xmlns:xlink="http://www.w3.org/1999/xlink" x="0px" y="0px"
	 width="64px" height="64px" viewBox="0 0 64 64" enable-background="new 0 0 64 64" xml:space="preserve">
<path d="M5.063,20.074c-0.943,0-1.647-0.549-1.647-1.04V6.876c0-0.491,0.705-1.04,1.647-1.04h10.942c0.943,0,1.647,0.549,1.647,1.04
	v12.158c0,0.491-0.705,1.04-1.647,1.04H5.063z"/>
<path d="M62,9.1c0,1.866-1.512,3.378-3.378,3.378H25.374c-1.866,0-3.378-1.512-3.378-3.378l0,0c0-1.865,1.512-3.377,3.378-3.377
	h33.248C60.488,5.723,62,7.235,62,9.1L62,9.1z"/>
<path d="M62,16.604c0,1.367-1.107,2.476-2.476,2.476H24.471c-1.367,0-2.475-1.108-2.475-2.476l0,0c0-1.367,1.108-2.475,2.475-2.475
	h35.053C60.893,14.128,62,15.236,62,16.604L62,16.604z"/>
<path d="M5.063,40.349c-0.943,0-1.647-0.549-1.647-1.04V27.151c0-0.491,0.705-1.04,1.647-1.04h10.942
	c0.943,0,1.647,0.549,1.647,1.04v12.157c0,0.491-0.705,1.04-1.647,1.04H5.063z"/>
<path d="M62,29.375c0,1.866-1.512,3.378-3.378,3.378H25.374c-1.866,0-3.378-1.512-3.378-3.378l0,0c0-1.865,1.512-3.377,3.378-3.377
	h33.248C60.488,25.998,62,27.51,62,29.375L62,29.375z"/>
<path d="M62,36.879c0,1.366-1.107,2.476-2.476,2.476H24.471c-1.367,0-2.475-1.109-2.475-2.476l0,0c0-1.367,1.108-2.476,2.475-2.476
	h35.053C60.893,34.403,62,35.512,62,36.879L62,36.879z"/>
<path d="M4.886,60.801c-0.943,0-1.648-0.549-1.648-1.04V47.604c0-0.491,0.705-1.041,1.648-1.041h10.942
	c0.943,0,1.647,0.55,1.647,1.041v12.157c0,0.491-0.705,1.04-1.647,1.04H4.886z"/>
<path d="M61.823,49.827c0,1.865-1.512,3.378-3.378,3.378H25.197c-1.866,0-3.378-1.513-3.378-3.378l0,0
	c0-1.866,1.512-3.378,3.378-3.378h33.248C60.312,46.449,61.823,47.961,61.823,49.827L61.823,49.827z"/>
<path d="M61.823,57.33c0,1.367-1.107,2.476-2.476,2.476H24.294c-1.367,0-2.476-1.108-2.476-2.476l0,0
	c0-1.366,1.109-2.475,2.476-2.475h35.053C60.716,54.855,61.823,55.964,61.823,57.33L61.823,57.33z"/>
</svg>
