<?xml version="1.0" encoding="utf-8"?>
<!-- Generator: Adobe Illustrator 16.0.0, SVG Export Plug-In . SVG Version: 6.00 Build 0)  -->
<!DOCTYPE svg PUBLIC "-//W3C//DTD SVG 1.1//EN" "http://www.w3.org/Graphics/SVG/1.1/DTD/svg11.dtd">
<svg version="1.1" id="Layer_1" xmlns="http://www.w3.org/2000/svg" xmlns:xlink="http://www.w3.org/1999/xlink" x="0px" y="0px"
	 width="128px" height="128px" viewBox="0 0 128 128" enable-background="new 0 0 128 128" xml:space="preserve">
<path d="M111.588,54.955c0.014-0.396,0.029-0.793,0.029-1.193c0-18.205-14.76-32.964-32.965-32.964
	c-10.864,0-20.498,5.256-26.502,13.36c-2.685-1.05-5.604-1.631-8.66-1.631c-11.896,0-21.749,8.721-23.526,20.118
	C11.889,57.07,6.489,65.104,6.489,74.285c0,13.959,12.485,25.275,27.89,25.275h59.244c15.402,0,27.888-11.316,27.888-25.275
	C121.511,66.527,117.652,59.594,111.588,54.955z M83.861,79.653c1.368,1.368,1.368,3.587,0,4.955l-2.064,2.063
	c-0.684,0.685-1.58,1.027-2.478,1.027c-0.896,0-1.793-0.343-2.477-1.027L64,73.831L51.159,86.672
	c-0.685,0.685-1.582,1.027-2.478,1.027c-0.897,0-1.793-0.343-2.478-1.027l-2.065-2.063c-1.368-1.368-1.368-3.587,0-4.955
	l12.842-12.842L44.139,53.97c-1.368-1.368-1.368-3.586,0-4.955l2.065-2.064c0.684-0.684,1.581-1.026,2.478-1.026
	c0.896,0,1.793,0.343,2.478,1.026L64,59.792L76.843,46.95c0.684-0.684,1.58-1.026,2.477-1.026c0.897,0,1.794,0.343,2.478,1.026
	l2.064,2.064c1.368,1.369,1.368,3.587,0,4.955L71.021,66.812L83.861,79.653z"/>
</svg>
