<?xml version="1.0" encoding="utf-8"?>
<!-- Generator: Adobe Illustrator 16.0.0, SVG Export Plug-In . SVG Version: 6.00 Build 0)  -->
<!DOCTYPE svg PUBLIC "-//W3C//DTD SVG 1.1//EN" "http://www.w3.org/Graphics/SVG/1.1/DTD/svg11.dtd">
<svg version="1.1" id="Layer_1" xmlns="http://www.w3.org/2000/svg" xmlns:xlink="http://www.w3.org/1999/xlink" x="0px" y="0px"
	 width="128px" height="128px" viewBox="0 0 128 128" enable-background="new 0 0 128 128" xml:space="preserve">
<path d="M20.535,118.778h86.93c3.649,0,6.525-3.209,6.03-6.824C110.863,92.703,97.263,76.952,79.2,71.189
	c-2.551-0.813-4.321-3.124-4.321-5.801V64.97c0-2.197,1.223-4.162,3.106-5.295c8.171-4.915,13.549-13.997,13.166-24.312
	C90.636,21.44,79.266,9.928,65.35,9.255C49.731,8.5,36.831,20.939,36.831,36.392c0,9.898,5.297,18.549,13.208,23.297
	c1.868,1.121,3.083,3.069,3.083,5.249v0.45c0,2.677-1.771,4.987-4.321,5.801c-18.062,5.763-31.665,21.514-34.296,40.765
	C14.011,115.569,16.885,118.778,20.535,118.778z"/>
</svg>
