<?xml version="1.0" encoding="utf-8"?>
<!-- Generator: Adobe Illustrator 16.0.0, SVG Export Plug-In . SVG Version: 6.00 Build 0)  -->
<!DOCTYPE svg PUBLIC "-//W3C//DTD SVG 1.1//EN" "http://www.w3.org/Graphics/SVG/1.1/DTD/svg11.dtd">
<svg version="1.1" id="Layer_1" xmlns="http://www.w3.org/2000/svg" xmlns:xlink="http://www.w3.org/1999/xlink" x="0px" y="0px"
	 width="128px" height="128px" viewBox="0 0 128 128" enable-background="new 0 0 128 128" xml:space="preserve">
<path d="M119.021,61.906L83.326,41.212c-1.669-0.963-3.499-1.426-5.308-1.426c-3.684,0-7.276,1.908-9.241,5.3L48.09,80.783
	c-2.937,5.062-1.195,11.617,3.871,14.545l35.693,20.693c1.669,0.967,3.499,1.426,5.308,1.426c3.682,0,7.275-1.906,9.24-5.298
	l20.691-35.694C125.829,71.391,124.085,64.842,119.021,61.906z M72.649,59.176c-1.056-3.955,1.301-8.014,5.254-9.064
	c0.64-0.171,1.282-0.251,1.913-0.251c3.277-0.002,6.271,2.19,7.156,5.503c1.052,3.961-1.299,8.019-5.254,9.065
	c-0.639,0.17-1.281,0.257-1.911,0.257C76.527,64.68,73.532,62.493,72.649,59.176z M78.332,80.523
	c-1.055-3.951,1.3-8.011,5.254-9.062c0.639-0.168,1.28-0.252,1.911-0.252c3.278,0,6.271,2.192,7.155,5.508
	c1.052,3.957-1.3,8.017-5.254,9.062c-0.638,0.169-1.28,0.258-1.911,0.258C82.209,86.03,79.214,83.841,78.332,80.523z
	 M93.079,107.128c-0.64,0.17-1.282,0.252-1.912,0.252c-3.275,0-6.27-2.192-7.152-5.506c-1.056-3.954,1.296-8.015,5.251-9.062
	c0.639-0.17,1.28-0.253,1.911-0.253c3.28,0,6.273,2.19,7.158,5.506C99.385,102.013,97.03,106.076,93.079,107.128z M52.269,53.81
	c1.551-2.675,4.516-4.009,7.399-3.619l4.504-7.772c1.297-2.24,3.113-4.083,5.24-5.44L64.483,18.46
	c-1.507-5.658-7.367-9.052-13.027-7.554L11.588,21.519c-5.658,1.508-9.056,7.37-7.55,13.029l10.611,39.867
	c1.506,5.661,7.368,9.055,13.025,7.553l16.05-4.271l9.083-15.67C51.038,59.716,50.72,56.482,52.269,53.81z M16.736,41.779
	c-3.538-2.052-4.746-6.589-2.693-10.13c2.051-3.538,6.584-4.745,10.125-2.695c3.54,2.054,4.748,6.586,2.693,10.126
	C24.81,42.622,20.277,43.829,16.736,41.779z M34.897,69.273c-2.052,3.54-6.586,4.745-10.126,2.693
	c-3.539-2.05-4.746-6.586-2.696-10.125c2.054-3.54,6.586-4.748,10.126-2.697C35.743,61.198,36.95,65.734,34.897,69.273z
	 M45.975,50.16c-2.053,3.54-6.586,4.747-10.125,2.695c-3.539-2.05-4.745-6.586-2.695-10.125c2.05-3.542,6.585-4.747,10.126-2.697
	C46.819,42.086,48.026,46.619,45.975,50.16z M46.93,33.738c-3.541-2.047-4.746-6.587-2.695-10.125
	c2.053-3.543,6.586-4.749,10.125-2.698c3.54,2.053,4.746,6.59,2.693,10.128C55.003,34.586,50.47,35.79,46.93,33.738z"/>
</svg>
