<?xml version="1.0" encoding="utf-8"?>
<!-- Generator: Adobe Illustrator 16.0.0, SVG Export Plug-In . SVG Version: 6.00 Build 0)  -->
<!DOCTYPE svg PUBLIC "-//W3C//DTD SVG 1.1//EN" "http://www.w3.org/Graphics/SVG/1.1/DTD/svg11.dtd">
<svg version="1.1" id="Layer_1" xmlns="http://www.w3.org/2000/svg" xmlns:xlink="http://www.w3.org/1999/xlink" x="0px" y="0px"
	 width="64px" height="64px" viewBox="0 0 64 64" enable-background="new 0 0 64 64" xml:space="preserve">
<g>
	<path d="M23.172,33.084c2.117,0,4.257-0.418,6.304-1.272l4.138,0.905c0.342,0.073,0.696-0.029,0.943-0.276l4.307-4.307
		c0.246-0.246,0.351-0.602,0.275-0.943l-0.905-4.137c2.557-6.123,1.195-13.065-3.513-17.774c-3.075-3.074-7.162-4.767-11.509-4.767
		c-4.348,0-8.435,1.693-11.509,4.767c-6.346,6.346-6.346,16.672,0,23.018C14.836,31.433,18.959,33.084,23.172,33.084z M15.26,8.838
		c4.392-4.392,11.511-4.392,15.903,0c4.391,4.391,4.391,11.511,0,15.902c-4.392,4.392-11.511,4.392-15.903,0
		C10.869,20.35,10.869,13.229,15.26,8.838z"/>
	<path d="M35.899,35.23l12.104,13.707c0.941,1.066,2.297,1.703,3.719,1.747c0.053,0.002,0.105,0.003,0.158,0.003
		c1.365,0,2.692-0.547,3.66-1.516c1.006-1.006,1.559-2.398,1.514-3.82c-0.044-1.421-0.681-2.776-1.747-3.719L41.6,29.529
		c-0.405-0.358-1.02-0.339-1.402,0.044l-4.254,4.255C35.561,34.211,35.541,34.824,35.899,35.23z"/>
</g>
</svg>
