<?xml version="1.0" encoding="utf-8"?>
<!-- Generator: Adobe Illustrator 16.0.0, SVG Export Plug-In . SVG Version: 6.00 Build 0)  -->
<!DOCTYPE svg PUBLIC "-//W3C//DTD SVG 1.1//EN" "http://www.w3.org/Graphics/SVG/1.1/DTD/svg11.dtd">
<svg version="1.1" id="Layer_1" xmlns="http://www.w3.org/2000/svg" xmlns:xlink="http://www.w3.org/1999/xlink" x="0px" y="0px"
	 width="64px" height="64px" viewBox="0 0 64 64" enable-background="new 0 0 64 64" xml:space="preserve">
<path d="M28.015,25.994c0,2.449-2.379,4.432-5.318,4.432H6.744c-2.938,0-5.318-1.983-5.318-4.432V8.269
	c0-2.449,2.38-4.432,5.318-4.432h15.953c2.938,0,5.318,1.983,5.318,4.432V25.994z"/>
<path d="M28.015,55.566c0,2.449-2.379,4.434-5.318,4.434H6.744c-2.938,0-5.318-1.982-5.318-4.434V37.842
	c0-2.447,2.38-4.432,5.318-4.432h15.953c2.938,0,5.318,1.984,5.318,4.432V55.566z"/>
<path d="M58,25.994c0,2.449-2.379,4.432-5.318,4.432H36.729c-2.938,0-5.318-1.983-5.318-4.432V8.269
	c0-2.449,2.381-4.432,5.318-4.432h15.953C55.619,3.837,58,5.82,58,8.269V25.994z"/>
<path d="M58,55.566C58,58.016,55.621,60,52.682,60H36.729c-2.938,0-5.318-1.982-5.318-4.434V37.842c0-2.447,2.381-4.432,5.318-4.432
	h15.953c2.938,0,5.318,1.984,5.318,4.432V55.566z"/>
</svg>
