<?xml version="1.0" encoding="utf-8"?>
<!-- Generator: Adobe Illustrator 16.0.0, SVG Export Plug-In . SVG Version: 6.00 Build 0)  -->
<!DOCTYPE svg PUBLIC "-//W3C//DTD SVG 1.1//EN" "http://www.w3.org/Graphics/SVG/1.1/DTD/svg11.dtd">
<svg version="1.1" id="Layer_1" xmlns="http://www.w3.org/2000/svg" xmlns:xlink="http://www.w3.org/1999/xlink" x="0px" y="0px"
	 width="128px" height="128px" viewBox="0 0 128 128" enable-background="new 0 0 128 128" xml:space="preserve">
<path d="M111.925,61.956c0.014-0.396,0.029-0.793,0.029-1.193c0-18.206-14.76-32.965-32.965-32.965
	c-10.864,0-20.498,5.256-26.502,13.36c-2.684-1.05-5.604-1.631-8.66-1.631c-11.896,0-21.749,8.721-23.526,20.117
	C12.226,64.071,6.826,72.104,6.826,81.285c0,13.959,12.486,25.275,27.89,25.275H93.96c15.402,0,27.888-11.316,27.888-25.275
	C121.848,73.529,117.989,66.594,111.925,61.956z M78.286,68.986c-1.765,1.764-4.846,1.764-6.613,0l-3.733-3.738v27.891
	c0,2.576-2.098,4.678-4.676,4.678c-2.577,0-4.676-2.102-4.676-4.678V65.244l-3.734,3.738c-1.766,1.768-4.846,1.768-6.609-0.002
	c-0.885-0.887-1.371-2.061-1.371-3.309c0-1.249,0.486-2.423,1.371-3.305l11.695-11.695c0.231-0.228,0.479-0.438,0.747-0.609
	l0.136-0.083c0.225-0.133,0.441-0.253,0.671-0.343l0.22-0.075c0.269-0.088,0.457-0.152,0.656-0.188
	c0.09-0.018,0.182-0.027,0.271-0.032l0.15-0.016c0.229-0.03,0.348-0.043,0.473-0.043c0.117,0,0.228,0.013,0.338,0.03l0.207,0.021
	c0.117,0.008,0.234,0.021,0.349,0.041c0.191,0.035,0.361,0.093,0.535,0.153c0.183,0.053,0.269,0.076,0.351,0.112
	c0.181,0.069,0.354,0.174,0.529,0.271c0.149,0.082,0.213,0.114,0.271,0.153c0.271,0.179,0.52,0.382,0.735,0.604l11.707,11.703
	c0.884,0.884,1.369,2.057,1.369,3.308C79.655,66.926,79.17,68.098,78.286,68.986z"/>
</svg>
